<!-- Generated by IcoMoon.io -->
<svg version="1.1" xmlns="http://www.w3.org/2000/svg" width="416" height="448" viewBox="0 0 416 448">
<title></title>
<g id="icomoon-ignore">
</g>
<path d="M325.75 241l-128 128c-3.25 3-8.25 3-11.5 0l-72-72c-3-3.25-3-8.25 0-11.25l11.5-11.5c3-3 8-3 11.25 0l55 55 111-111c3.25-3 8.25-3 11.25 0l11.5 11.5c3 3 3 8 0 11.25zM32 416h352v-256h-352v256zM128 112v-72c0-4.5-3.5-8-8-8h-16c-4.5 0-8 3.5-8 8v72c0 4.5 3.5 8 8 8h16c4.5 0 8-3.5 8-8zM320 112v-72c0-4.5-3.5-8-8-8h-16c-4.5 0-8 3.5-8 8v72c0 4.5 3.5 8 8 8h16c4.5 0 8-3.5 8-8zM416 96v320c0 17.5-14.5 32-32 32h-352c-17.5 0-32-14.5-32-32v-320c0-17.5 14.5-32 32-32h32v-24c0-22 18-40 40-40h16c22 0 40 18 40 40v24h96v-24c0-22 18-40 40-40h16c22 0 40 18 40 40v24h32c17.5 0 32 14.5 32 32z"></path>
</svg>
